<svg width="17" height="18" viewBox="0 0 17 18" fill="none" xmlns="http://www.w3.org/2000/svg">
<path fill-rule="evenodd" clip-rule="evenodd" d="M6.03427 1.83432C6.18429 1.68429 6.38777 1.6 6.59993 1.6H9.79993C10.0121 1.6 10.2156 1.68429 10.3656 1.83432C10.5157 1.98434 10.5999 2.18783 10.5999 2.4V3.2H5.79995V2.4C5.79995 2.18783 5.88424 1.98434 6.03427 1.83432ZM4.19995 3.2V2.4C4.19995 1.76348 4.45281 1.15303 4.90289 0.702944C5.35298 0.252856 5.96343 0 6.59993 0H9.79993C10.4365 0 11.0469 0.252856 11.497 0.702944C11.9471 1.15303 12.1999 1.76348 12.1999 2.4V3.2H13.7999H15.3999C15.8418 3.2 16.1999 3.55818 16.1999 4C16.1999 4.44183 15.8418 4.8 15.3999 4.8H14.5999V15.2C14.5999 15.8365 14.3471 16.447 13.897 16.897C13.4469 17.3471 12.8365 17.6 12.1999 17.6H4.19995C3.56343 17.6 2.95298 17.3471 2.50289 16.897C2.05281 16.447 1.79995 15.8365 1.79995 15.2V4.8H0.999951C0.558127 4.8 0.199951 4.44183 0.199951 4C0.199951 3.55818 0.558127 3.2 0.999951 3.2H2.59995H4.19995ZM3.39995 4.8H4.99995H11.3999H12.9999V15.2C12.9999 15.4122 12.9157 15.6157 12.7656 15.7657C12.6156 15.9157 12.4121 16 12.1999 16H4.19995C3.98778 16 3.7843 15.9157 3.63427 15.7657C3.48424 15.6157 3.39995 15.4122 3.39995 15.2V4.8Z" fill="#003CD6"/>
</svg>
