<svg width="16" height="16" viewBox="0 0 16 16" fill="none" xmlns="http://www.w3.org/2000/svg">
<path fill-rule="evenodd" clip-rule="evenodd" d="M8.8 0.8C8.8 0.358176 8.44184 0 8 0C7.55816 0 7.2 0.358176 7.2 0.8V8.46864L4.56569 5.83431C4.25326 5.5219 3.74674 5.5219 3.43431 5.83431C3.1219 6.14674 3.1219 6.65328 3.43431 6.96568L7.43376 10.9651C7.43568 10.967 7.4376 10.969 7.4396 10.9709C7.51504 11.045 7.6016 11.1011 7.69376 11.1393C7.78744 11.1782 7.89 11.1997 7.9976 11.2H8H8.0024C8.21968 11.1994 8.41664 11.1121 8.5604 10.9709C8.5624 10.969 8.56432 10.967 8.56624 10.9651L12.5657 6.96568C12.8781 6.65328 12.8781 6.14674 12.5657 5.83431C12.2533 5.5219 11.7467 5.5219 11.4343 5.83431L8.8 8.46864V0.8ZM0.8 9.6C1.24182 9.6 1.6 9.95816 1.6 10.4V13.6C1.6 13.8122 1.68429 14.0157 1.83431 14.1657C1.98434 14.3157 2.18782 14.4 2.4 14.4H13.6C13.8122 14.4 14.0157 14.3157 14.1657 14.1657C14.3157 14.0157 14.4 13.8122 14.4 13.6V10.4C14.4 9.95816 14.7582 9.6 15.2 9.6C15.6418 9.6 16 9.95816 16 10.4V13.6C16 14.2366 15.7471 14.847 15.297 15.297C14.847 15.7471 14.2366 16 13.6 16H2.4C1.76348 16 1.15303 15.7471 0.702944 15.297C0.252856 14.847 0 14.2366 0 13.6V10.4C0 9.95816 0.358176 9.6 0.8 9.6Z" fill="#003CD6"/>
</svg>
