<svg width="18" height="18" viewBox="0 0 18 18" fill="none" xmlns="http://www.w3.org/2000/svg">
<path fill-rule="evenodd" clip-rule="evenodd" d="M14.7656 1.86274C14.9339 1.69451 15.162 1.6 15.4 1.6C15.6379 1.6 15.866 1.69451 16.0343 1.86274C16.2025 2.03097 16.297 2.25914 16.297 2.49705C16.297 2.73497 16.2025 2.96314 16.0343 3.13137L8.59099 10.5747L6.89946 10.9976L7.32234 9.30603L14.7656 1.86274ZM15.4 0C14.7377 0 14.1026 0.263078 13.6343 0.731374L6.03428 8.33139C5.93176 8.43387 5.85902 8.56235 5.82385 8.70299L5.02386 11.903C4.9557 12.1756 5.03558 12.464 5.23428 12.6628C5.43298 12.8615 5.72138 12.9413 5.994 12.8732L9.19403 12.0732C9.33467 12.038 9.46315 11.9652 9.56563 11.8628L17.1656 4.26274C17.634 3.79445 17.897 3.15932 17.897 2.49705C17.897 1.8348 17.634 1.19966 17.1656 0.731374C16.6974 0.263078 16.0622 0 15.4 0ZM2.59995 1.69707C1.96343 1.69707 1.35298 1.94993 0.902895 2.40001C0.452807 2.8501 0.199951 3.46055 0.199951 4.09707V15.2971C0.199951 15.9336 0.452807 16.544 0.902895 16.9941C1.35298 17.4442 1.96343 17.6971 2.59995 17.6971H13.8C14.4365 17.6971 15.0469 17.4442 15.497 16.9941C15.9471 16.544 16.2 15.9336 16.2 15.2971V9.69707C16.2 9.25523 15.8418 8.89707 15.4 8.89707C14.9581 8.89707 14.6 9.25523 14.6 9.69707V15.2971C14.6 15.5092 14.5156 15.7128 14.3656 15.8628C14.2156 16.0128 14.0121 16.0971 13.8 16.0971H2.59995C2.38778 16.0971 2.1843 16.0128 2.03426 15.8628C1.88424 15.7128 1.79995 15.5092 1.79995 15.2971V4.09707C1.79995 3.88489 1.88424 3.68141 2.03426 3.53138C2.1843 3.38136 2.38778 3.29707 2.59995 3.29707H8.19995C8.64179 3.29707 8.99995 2.93889 8.99995 2.49707C8.99995 2.05525 8.64179 1.69707 8.19995 1.69707H2.59995Z" fill="#003CD6"/>
</svg>
