<svg width="33" height="36" viewBox="0 0 33 36" fill="none" xmlns="http://www.w3.org/2000/svg">
<path d="M9.09588 35.358C7.40838 35.358 5.90412 35.0682 4.5831 34.4886C3.2706 33.9091 2.22656 33.1037 1.45099 32.0724C0.683949 31.0327 0.266335 29.8267 0.198154 28.4545H3.41974C3.48793 29.2983 3.7777 30.027 4.28906 30.6406C4.80043 31.2457 5.46946 31.7145 6.29616 32.0469C7.12287 32.3793 8.03906 32.5455 9.04474 32.5455C10.1697 32.5455 11.1669 32.3494 12.0362 31.9574C12.9055 31.5653 13.5874 31.0199 14.0817 30.321C14.576 29.6222 14.8232 28.8125 14.8232 27.892C14.8232 26.929 14.5845 26.081 14.1072 25.348C13.63 24.6065 12.9311 24.027 12.0107 23.6094C11.0902 23.1918 9.9652 22.983 8.63565 22.983H6.53906V20.1705H8.63565C9.67543 20.1705 10.5874 19.983 11.3714 19.608C12.1641 19.233 12.782 18.7045 13.2251 18.0227C13.6768 17.3409 13.9027 16.5398 13.9027 15.6193C13.9027 14.733 13.7067 13.9616 13.3146 13.3054C12.9226 12.6491 12.3686 12.1378 11.6527 11.7713C10.9453 11.4048 10.1101 11.2216 9.14702 11.2216C8.24361 11.2216 7.39134 11.3878 6.5902 11.7202C5.79759 12.044 5.14986 12.517 4.64702 13.1392C4.14418 13.7528 3.87145 14.4943 3.82884 15.3636H0.760654C0.81179 13.9915 1.22514 12.7898 2.00071 11.7585C2.77628 10.7187 3.79048 9.90909 5.04332 9.32955C6.30469 8.75 7.68963 8.46023 9.19815 8.46023C10.8175 8.46023 12.2067 8.78835 13.3658 9.4446C14.5249 10.0923 15.4155 10.9489 16.0376 12.0142C16.6598 13.0795 16.9709 14.2301 16.9709 15.4659C16.9709 16.9403 16.5831 18.1974 15.8075 19.2372C15.0405 20.277 13.9964 20.9972 12.6754 21.3977V21.6023C14.3288 21.875 15.62 22.5781 16.549 23.7116C17.478 24.8366 17.9425 26.2301 17.9425 27.892C17.9425 29.3153 17.5547 30.5938 16.7791 31.7273C16.0121 32.8523 14.9638 33.7386 13.6342 34.3864C12.3047 35.0341 10.7919 35.358 9.09588 35.358Z" fill="#2763FE"/>
<path fill-rule="evenodd" clip-rule="evenodd" d="M21 16.3484V27.8713C22.4344 27.6039 23.7248 26.8838 24.6519 25.8335C25.579 24.7832 26.0855 23.4675 26.0855 22.1099C26.0855 20.7522 25.579 19.4365 24.6519 18.3862C23.7248 17.3359 22.4344 16.6158 21 16.3484Z" fill="url(#paint0_linear_2_79)"/>
<path d="M21 12.2665V9C24.3426 9.48223 27.3893 11.0576 29.5899 13.4415C31.7905 15.8255 33 18.8611 33 22C33 25.139 31.7905 28.1745 29.5899 30.5585C27.3893 32.9425 24.3426 34.5178 21 35V31.7334C23.4127 31.2699 25.5795 30.0487 27.1351 28.2757C28.6907 26.5027 29.5401 24.2863 29.5401 22C29.5401 19.7137 28.6907 17.4973 27.1351 15.7243C25.5795 13.9513 23.4127 12.7301 21 12.2665Z" fill="url(#paint1_linear_2_79)"/>
<defs>
<linearGradient id="paint0_linear_2_79" x1="-11.3787" y1="-96.4003" x2="67.437" y2="-96.4003" gradientUnits="userSpaceOnUse">
<stop stop-color="#2763FE"/>
</linearGradient>
<linearGradient id="paint1_linear_2_79" x1="-11.3787" y1="-96.4003" x2="67.437" y2="-96.4003" gradientUnits="userSpaceOnUse">
<stop stop-color="#2763FE"/>
</linearGradient>
</defs>
</svg>
