<svg width="20" height="20" viewBox="0 0 20 20" fill="none" xmlns="http://www.w3.org/2000/svg">
<path fill-rule="evenodd" clip-rule="evenodd" d="M3 2C2.73478 2 2.48043 2.10536 2.29289 2.29289C2.10536 2.48043 2 2.73478 2 3V17C2 17.2652 2.10536 17.5196 2.29289 17.7071C2.48043 17.8946 2.73478 18 3 18H7C7.55228 18 8 18.4477 8 19C8 19.5523 7.55228 20 7 20H3C2.20435 20 1.44129 19.6839 0.87868 19.1213C0.31607 18.5587 0 17.7957 0 17V3C0 2.20435 0.31607 1.44129 0.87868 0.87868C1.44129 0.31607 2.20435 0 3 0H7C7.55228 0 8 0.447715 8 1C8 1.55228 7.55228 2 7 2H3ZM13.2929 4.29289C13.6834 3.90237 14.3166 3.90237 14.7071 4.29289L19.7023 9.28814C19.7208 9.30641 19.7386 9.3254 19.7557 9.34506C19.8153 9.41366 19.864 9.48845 19.9017 9.56716C19.9647 9.69813 20 9.84495 20 10C20 10.1561 19.9642 10.3039 19.9004 10.4356C19.865 10.5088 19.8201 10.5786 19.7658 10.6431C19.7454 10.6674 19.7238 10.6908 19.7011 10.713L14.7071 15.7071C14.3166 16.0976 13.6834 16.0976 13.2929 15.7071C12.9024 15.3166 12.9024 14.6834 13.2929 14.2929L16.5858 11H7C6.44772 11 6 10.5523 6 10C6 9.44772 6.44772 9 7 9H16.5858L13.2929 5.70711C12.9024 5.31658 12.9024 4.68342 13.2929 4.29289Z" fill="white"/>
</svg>
