<svg width="152" height="43" viewBox="0 0 152 43" fill="none" xmlns="http://www.w3.org/2000/svg">
<path d="M9.09588 35.358C7.40838 35.358 5.90412 35.0682 4.5831 34.4886C3.2706 33.9091 2.22656 33.1037 1.45099 32.0724C0.683949 31.0327 0.266335 29.8267 0.198154 28.4545H3.41974C3.48793 29.2983 3.7777 30.027 4.28906 30.6406C4.80043 31.2457 5.46946 31.7145 6.29616 32.0469C7.12287 32.3793 8.03906 32.5455 9.04474 32.5455C10.1697 32.5455 11.1669 32.3494 12.0362 31.9574C12.9055 31.5653 13.5874 31.0199 14.0817 30.321C14.576 29.6222 14.8232 28.8125 14.8232 27.892C14.8232 26.929 14.5845 26.081 14.1072 25.348C13.63 24.6065 12.9311 24.027 12.0107 23.6094C11.0902 23.1918 9.9652 22.983 8.63565 22.983H6.53906V20.1705H8.63565C9.67543 20.1705 10.5874 19.983 11.3714 19.608C12.1641 19.233 12.782 18.7045 13.2251 18.0227C13.6768 17.3409 13.9027 16.5398 13.9027 15.6193C13.9027 14.733 13.7067 13.9616 13.3146 13.3054C12.9226 12.6491 12.3686 12.1378 11.6527 11.7713C10.9453 11.4048 10.1101 11.2216 9.14702 11.2216C8.24361 11.2216 7.39134 11.3878 6.5902 11.7202C5.79759 12.044 5.14986 12.517 4.64702 13.1392C4.14418 13.7528 3.87145 14.4943 3.82884 15.3636H0.760654C0.81179 13.9915 1.22514 12.7898 2.00071 11.7585C2.77628 10.7187 3.79048 9.90909 5.04332 9.32955C6.30469 8.75 7.68963 8.46023 9.19815 8.46023C10.8175 8.46023 12.2067 8.78835 13.3658 9.4446C14.5249 10.0923 15.4155 10.9489 16.0376 12.0142C16.6598 13.0795 16.9709 14.2301 16.9709 15.4659C16.9709 16.9403 16.5831 18.1974 15.8075 19.2372C15.0405 20.277 13.9964 20.9972 12.6754 21.3977V21.6023C14.3288 21.875 15.62 22.5781 16.549 23.7116C17.478 24.8366 17.9425 26.2301 17.9425 27.892C17.9425 29.3153 17.5547 30.5938 16.7791 31.7273C16.0121 32.8523 14.9638 33.7386 13.6342 34.3864C12.3047 35.0341 10.7919 35.358 9.09588 35.358Z" fill="#2763FE"/>
<path d="M49.7784 8.81818V35H46.7614V8.81818H49.7784ZM55.3043 35V15.3636H58.3214V35H55.3043ZM56.8384 12.0909C56.2504 12.0909 55.7433 11.8906 55.3171 11.4901C54.8995 11.0895 54.6907 10.608 54.6907 10.0455C54.6907 9.48295 54.8995 9.00142 55.3171 8.60085C55.7433 8.20028 56.2504 8 56.8384 8C57.4265 8 57.9293 8.20028 58.3469 8.60085C58.7731 9.00142 58.9862 9.48295 58.9862 10.0455C58.9862 10.608 58.7731 11.0895 58.3469 11.4901C57.9293 11.8906 57.4265 12.0909 56.8384 12.0909ZM64.2564 35V8.81818H67.2734V18.483H67.5291C67.7507 18.142 68.0575 17.7074 68.4496 17.179C68.8501 16.642 69.4212 16.1648 70.1626 15.7472C70.9126 15.321 71.9268 15.108 73.2053 15.108C74.8587 15.108 76.3161 15.5213 77.5774 16.348C78.8388 17.1747 79.8232 18.3466 80.5305 19.8636C81.2379 21.3807 81.5916 23.1705 81.5916 25.233C81.5916 27.3125 81.2379 29.1151 80.5305 30.6406C79.8232 32.1577 78.843 33.3338 77.5902 34.169C76.3374 34.9957 74.8928 35.4091 73.2564 35.4091C71.995 35.4091 70.9851 35.2003 70.2266 34.7827C69.468 34.3565 68.8842 33.875 68.4751 33.3381C68.0661 32.7926 67.7507 32.3409 67.5291 31.983H67.1712V35H64.2564ZM67.2223 25.1818C67.2223 26.6648 67.4396 27.973 67.8743 29.1065C68.3089 30.2315 68.9439 31.1136 69.7791 31.7528C70.6143 32.3835 71.6371 32.6989 72.8473 32.6989C74.1087 32.6989 75.1612 32.3665 76.005 31.7017C76.8572 31.0284 77.4964 30.125 77.9226 28.9915C78.3572 27.8494 78.5746 26.5795 78.5746 25.1818C78.5746 23.8011 78.3615 22.5568 77.9354 21.4489C77.5178 20.3324 76.8828 19.4503 76.0305 18.8026C75.1868 18.1463 74.1257 17.8182 72.8473 17.8182C71.62 17.8182 70.5888 18.1293 69.7536 18.7514C68.9183 19.3651 68.2876 20.2259 67.8615 21.3338C67.4354 22.4332 67.2223 23.7159 67.2223 25.1818ZM86.2067 35V15.3636H89.1214V18.3295H89.326C89.6839 17.358 90.3317 16.5696 91.2692 15.9645C92.2067 15.3594 93.2635 15.0568 94.4396 15.0568C94.6612 15.0568 94.9382 15.0611 95.2706 15.0696C95.603 15.0781 95.8544 15.0909 96.0249 15.108V18.1761C95.9226 18.1506 95.6882 18.1122 95.3217 18.0611C94.9638 18.0014 94.5845 17.9716 94.1839 17.9716C93.2294 17.9716 92.3771 18.1719 91.6271 18.5724C90.8857 18.9645 90.2976 19.5099 89.8629 20.2088C89.4368 20.8991 89.2237 21.6875 89.2237 22.5739V35H86.2067ZM105.38 35.4602C104.135 35.4602 103.006 35.2259 101.992 34.7571C100.978 34.2798 100.172 33.5938 99.5756 32.6989C98.979 31.7955 98.6808 30.7045 98.6808 29.4261C98.6808 28.3011 98.9023 27.3892 99.3455 26.6903C99.7887 25.983 100.381 25.429 101.123 25.0284C101.864 24.6278 102.682 24.3295 103.577 24.1335C104.48 23.929 105.388 23.767 106.3 23.6477C107.493 23.4943 108.461 23.3793 109.202 23.3026C109.952 23.2173 110.498 23.0767 110.838 22.8807C111.188 22.6847 111.363 22.3437 111.363 21.858V21.7557C111.363 20.4943 111.017 19.5142 110.327 18.8153C109.645 18.1165 108.61 17.767 107.221 17.767C105.78 17.767 104.651 18.0824 103.833 18.7131C103.015 19.3437 102.439 20.017 102.107 20.733L99.2433 19.7102C99.7546 18.517 100.436 17.5881 101.289 16.9233C102.15 16.25 103.087 15.7812 104.101 15.517C105.124 15.2443 106.13 15.108 107.118 15.108C107.749 15.108 108.473 15.1847 109.292 15.3381C110.118 15.483 110.915 15.7855 111.682 16.2457C112.458 16.706 113.101 17.4006 113.613 18.3295C114.124 19.2585 114.38 20.5028 114.38 22.0625V35H111.363V32.3409H111.209C111.005 32.767 110.664 33.223 110.186 33.7088C109.709 34.1946 109.074 34.608 108.282 34.9489C107.489 35.2898 106.522 35.4602 105.38 35.4602ZM105.84 32.75C107.033 32.75 108.039 32.5156 108.857 32.0469C109.684 31.5781 110.306 30.973 110.723 30.2315C111.15 29.4901 111.363 28.7102 111.363 27.892V25.1307C111.235 25.2841 110.953 25.4247 110.519 25.5526C110.093 25.6719 109.598 25.7784 109.036 25.8722C108.482 25.9574 107.941 26.0341 107.412 26.1023C106.892 26.1619 106.471 26.2131 106.147 26.2557C105.363 26.358 104.63 26.5241 103.948 26.7543C103.275 26.9759 102.729 27.3125 102.311 27.7642C101.902 28.2074 101.698 28.8125 101.698 29.5795C101.698 30.6278 102.086 31.4205 102.861 31.9574C103.645 32.4858 104.638 32.75 105.84 32.75ZM119.886 35V15.3636H122.801V18.3295H123.006C123.364 17.358 124.011 16.5696 124.949 15.9645C125.886 15.3594 126.943 15.0568 128.119 15.0568C128.341 15.0568 128.618 15.0611 128.95 15.0696C129.283 15.0781 129.534 15.0909 129.705 15.108V18.1761C129.602 18.1506 129.368 18.1122 129.001 18.0611C128.643 18.0014 128.264 17.9716 127.864 17.9716C126.909 17.9716 126.057 18.1719 125.307 18.5724C124.565 18.9645 123.977 19.5099 123.543 20.2088C123.116 20.8991 122.903 21.6875 122.903 22.5739V35H119.886ZM135.822 42.3636C135.31 42.3636 134.854 42.321 134.454 42.2358C134.053 42.1591 133.776 42.0824 133.623 42.0057L134.39 39.3466C135.123 39.5341 135.771 39.6023 136.333 39.5511C136.896 39.5 137.394 39.2486 137.829 38.7969C138.272 38.3537 138.677 37.6335 139.043 36.6364L139.606 35.1023L132.344 15.3636H135.617L141.038 31.0114H141.242L146.663 15.3636H149.935L141.6 37.8636C141.225 38.8778 140.761 39.7173 140.207 40.3821C139.653 41.0554 139.009 41.554 138.276 41.8778C137.552 42.2017 136.734 42.3636 135.822 42.3636Z" fill="#2763FE"/>
<path fill-rule="evenodd" clip-rule="evenodd" d="M21 16.3484V27.8713C22.4344 27.6039 23.7248 26.8838 24.6519 25.8335C25.579 24.7832 26.0855 23.4675 26.0855 22.1099C26.0855 20.7522 25.579 19.4365 24.6519 18.3862C23.7248 17.3359 22.4344 16.6158 21 16.3484Z" fill="url(#paint0_linear_2_78)"/>
<path d="M21 12.2665V9C24.3426 9.48223 27.3893 11.0576 29.5899 13.4415C31.7905 15.8255 33 18.8611 33 22C33 25.139 31.7905 28.1745 29.5899 30.5585C27.3893 32.9425 24.3426 34.5178 21 35V31.7334C23.4127 31.2699 25.5795 30.0487 27.1351 28.2757C28.6907 26.5027 29.5401 24.2863 29.5401 22C29.5401 19.7137 28.6907 17.4973 27.1351 15.7243C25.5795 13.9513 23.4127 12.7301 21 12.2665Z" fill="url(#paint1_linear_2_78)"/>
<defs>
<linearGradient id="paint0_linear_2_78" x1="-11.3787" y1="-96.4003" x2="67.437" y2="-96.4003" gradientUnits="userSpaceOnUse">
<stop stop-color="#2763FE"/>
</linearGradient>
<linearGradient id="paint1_linear_2_78" x1="-11.3787" y1="-96.4003" x2="67.437" y2="-96.4003" gradientUnits="userSpaceOnUse">
<stop stop-color="#2763FE"/>
</linearGradient>
</defs>
</svg>
