<svg width="135" height="48" viewBox="0 0 135 48" fill="none" xmlns="http://www.w3.org/2000/svg">
<path d="M27.9213 15.3403C27.7137 15.1502 27.5469 14.9224 27.4304 14.6698C27.3139 14.4173 27.2501 14.1449 27.2426 13.8684C27.2351 13.5919 27.2841 13.3167 27.3867 13.0585C27.4893 12.8004 27.6435 12.5644 27.8406 12.3641L27.9213 12.2859C28.3711 11.876 28.9698 11.6547 29.5872 11.6701C30.1997 11.6514 30.7961 11.8614 31.2531 12.2566C31.4701 12.4379 31.6431 12.6633 31.76 12.9167C31.877 13.17 31.9348 13.4452 31.9296 13.7227C31.9375 14.0164 31.8829 14.3086 31.7691 14.581C31.6553 14.8534 31.4849 15.1002 31.2683 15.306C31.0486 15.5193 30.7861 15.6865 30.4969 15.7975C30.2077 15.9085 29.8981 15.9607 29.5872 15.9511C29.2817 15.9607 28.9771 15.9117 28.6912 15.8069C28.4053 15.702 28.1437 15.5434 27.9213 15.3403ZM27.7648 18.4679H31.3995V33.7202H27.7648V18.4679ZM51.7234 18.4142V31.2425C51.7234 36.5693 48.9149 39.2327 43.298 39.2327C41.8545 39.2411 40.417 39.0536 39.0273 38.6756C37.813 38.3716 36.6769 37.8275 35.6904 37.0776L37.3563 34.4142C38.1071 35 38.9627 35.4472 39.8804 35.7337C40.9058 36.057 41.9773 36.222 43.0557 36.2224C44.7721 36.2224 46.0291 35.8444 46.8267 35.0886C47.6243 34.3311 48.0231 33.1827 48.0281 31.6335V30.8467C47.3968 31.51 46.616 32.0234 45.7464 32.347C44.8028 32.6893 43.8007 32.8552 42.7932 32.8357C41.3884 32.8598 39.9998 32.5422 38.7547 31.912C37.5771 31.3211 36.593 30.4242 35.9126 29.3219C35.2171 28.1613 34.8676 26.8368 34.9029 25.4954C34.8671 24.1602 35.2168 22.8418 35.9126 21.6885C36.5937 20.5929 37.5783 19.7041 38.7547 19.1228C40.005 18.5084 41.3912 18.1981 42.7932 18.2187C43.8474 18.2057 44.8943 18.3881 45.8776 18.7563C46.7845 19.104 47.5852 19.669 48.2048 20.3983V18.4142H51.7234ZM46.7964 28.6768C47.2376 28.2778 47.5849 27.7915 47.8149 27.251C48.0448 26.7105 48.152 26.1284 48.1291 25.5443C48.1467 24.9709 48.0369 24.4006 47.8069 23.8719C47.577 23.3433 47.2324 22.8686 46.7964 22.4801C45.8331 21.7103 44.6229 21.2892 43.3737 21.2892C42.1246 21.2892 40.9144 21.7103 39.9511 22.4801C39.5125 22.8708 39.1663 23.3486 38.9363 23.8809C38.7062 24.4131 38.5978 24.9872 38.6184 25.5638C38.5955 26.148 38.7026 26.73 38.9326 27.2705C39.1625 27.811 39.5099 28.2973 39.9511 28.6964C40.9134 29.4706 42.1261 29.8929 43.3774 29.8893C44.6287 29.8857 45.8388 29.4566 46.7964 28.6768ZM56.7009 15.3647C56.4932 15.1747 56.3264 14.9468 56.2099 14.6943C56.0935 14.4417 56.0296 14.1693 56.0221 13.8928C56.0146 13.6163 56.0636 13.3411 56.1662 13.083C56.2688 12.8248 56.4231 12.5888 56.6201 12.3885C56.6201 12.3592 56.6756 12.3348 56.7009 12.3103C57.1506 11.9005 57.7493 11.6792 58.3668 11.6946C58.9792 11.6759 59.5756 11.8858 60.0326 12.281C60.2496 12.4624 60.4227 12.6877 60.5396 12.9411C60.6565 13.1945 60.7144 13.4696 60.7091 13.7471C60.7203 14.0391 60.6697 14.3302 60.5603 14.6025C60.4509 14.8748 60.2851 15.1226 60.073 15.3305C59.8534 15.5437 59.5908 15.711 59.3017 15.8219C59.0125 15.9329 58.7029 15.9852 58.392 15.9756C58.0814 15.9837 57.7723 15.9317 57.4827 15.8226C57.1932 15.7135 56.9291 15.5495 56.7059 15.3403L56.7009 15.3647ZM56.5242 18.4924H60.179V33.7202H56.5393L56.5242 18.4924ZM0 0V6.03054C4.26884 6.88628 8.10225 9.141 10.8537 12.4144C13.6052 15.6879 15.1064 19.7798 15.1041 24C15.1064 28.2202 13.6052 32.3121 10.8537 35.5856C8.10225 38.859 4.26884 41.1137 0 41.9695L0 48C5.91505 47.1102 11.3064 44.2019 15.2002 39.8006C19.0941 35.3992 21.2337 29.7949 21.2325 24C21.2337 18.2051 19.0941 12.6008 15.2002 8.19942C11.3064 3.79807 5.91505 0.889823 0 0L0 0ZM0 34.8393V13.5663C2.53862 14.0588 4.82265 15.3873 6.46361 17.3261C8.10458 19.2648 9.00116 21.6939 9.00086 24.2004C9.00232 26.7076 8.10628 29.1379 6.46521 31.0777C4.82415 33.0174 2.53947 34.3467 0 34.8393H0ZM71.6434 16.9334H64.8587V13.8204H82.2344V16.9334H75.4497V33.642H71.6434V16.9334ZM97.7676 27.1961H85.5107C85.6948 28.2567 86.2976 29.2065 87.1917 29.8448C88.1793 30.5181 89.3668 30.8612 90.574 30.8222C91.3595 30.8464 92.1418 30.713 92.8715 30.4304C93.6013 30.1478 94.2628 29.7222 94.8144 29.1802L96.7731 31.3598C96.0648 32.1922 95.1493 32.8363 94.1127 33.2315C92.7949 33.6977 91.3942 33.9049 89.9927 33.8411C88.5911 33.7774 87.2168 33.4439 85.9499 32.8601C84.6871 32.2406 83.6355 31.282 82.921 30.099C82.199 28.8807 81.8309 27.496 81.8558 26.0916C81.8256 24.7028 82.1738 23.3307 82.8654 22.1136C83.5413 20.9509 84.5398 19.9945 85.7479 19.3525C87.0235 18.6877 88.4541 18.3512 89.9026 18.3751C91.3286 18.3512 92.7363 18.6881 93.9865 19.3525C95.1721 19.9919 96.1456 20.9444 96.7933 22.099C97.4852 23.3566 97.8328 24.7648 97.8029 26.1894C97.8209 26.5318 97.809 26.8751 97.7676 27.2156V27.1961ZM86.9595 22.1869C86.1416 22.872 85.6147 23.826 85.4804 24.865H94.3449C94.225 23.8357 93.714 22.8864 92.9113 22.2016C92.0676 21.5452 91.0177 21.1874 89.9354 21.1874C88.853 21.1874 87.8031 21.5452 86.9595 22.2016V22.1869ZM104.148 32.8503C102.891 32.2239 101.841 31.267 101.12 30.0892C100.407 28.8688 100.033 27.4909 100.033 26.0892C100.033 24.6875 100.407 23.3096 101.12 22.0892C101.837 20.9225 102.875 19.9717 104.118 19.3427C105.469 18.6702 106.971 18.3343 108.49 18.3653C109.893 18.3368 111.281 18.6475 112.528 19.2694C113.664 19.8502 114.581 20.7636 115.148 21.879L112.367 23.4575C111.962 22.7971 111.381 22.2537 110.686 21.8839C109.784 21.4368 108.762 21.2705 107.758 21.4078C106.755 21.5452 105.821 21.9795 105.082 22.6512C104.63 23.1032 104.278 23.6397 104.047 24.2278C103.816 24.816 103.712 25.4435 103.74 26.0721C103.712 26.6994 103.816 27.3255 104.044 27.9133C104.272 28.501 104.62 29.0382 105.067 29.493C105.804 30.1704 106.739 30.6113 107.745 30.7556C108.75 30.8999 109.777 30.7406 110.686 30.2993C111.381 29.9295 111.962 29.3862 112.367 28.7257L115.179 30.2993C114.59 31.4122 113.666 32.3257 112.528 32.9188C111.285 33.5525 109.895 33.8687 108.49 33.8375C106.981 33.8578 105.49 33.5188 104.148 32.8503ZM131.797 20.0367C132.985 21.1509 133.579 22.8027 133.579 24.9921V33.642H129.924V25.4123C129.924 24.088 129.601 23.0959 128.96 22.4215C128.598 22.0797 128.165 21.816 127.69 21.6476C127.215 21.4791 126.708 21.4098 126.204 21.4441C125.617 21.415 125.031 21.5042 124.481 21.7061C123.932 21.908 123.432 22.2182 123.013 22.617C122.231 23.3989 121.837 24.5278 121.842 26.0037V33.642H118.187V12.628H121.842V20.2761C122.468 19.6415 123.235 19.152 124.084 18.8442C125.034 18.5068 126.04 18.3412 127.052 18.3555C127.918 18.3183 128.784 18.4477 129.598 18.7362C130.413 19.0248 131.16 19.4668 131.797 20.0367Z" fill="white"/>
<path d="M130.57 47.1397C130.793 47.3588 131.064 47.526 131.363 47.6284C131.709 47.7491 132.075 47.8055 132.443 47.7945C132.789 47.8021 133.132 47.7422 133.453 47.6186C133.706 47.52 133.922 47.3497 134.074 47.1299C134.205 46.9335 134.276 46.7043 134.276 46.4702C134.288 46.2169 134.204 45.9681 134.038 45.7713C133.879 45.6019 133.683 45.4699 133.463 45.3853C133.167 45.282 132.865 45.1955 132.559 45.1262C132.292 45.0627 132.024 44.9845 131.762 44.8966C131.572 44.8344 131.399 44.7307 131.257 44.5936C131.189 44.5217 131.137 44.4376 131.104 44.3462C131.07 44.2548 131.055 44.1578 131.06 44.0609C131.057 43.922 131.089 43.7845 131.154 43.6603C131.218 43.536 131.312 43.4287 131.429 43.3474C131.745 43.1425 132.123 43.0446 132.504 43.0688C132.75 43.0701 132.995 43.1063 133.231 43.1763C133.473 43.2433 133.701 43.3491 133.907 43.4891L134.049 43.1959C133.83 43.0524 133.59 42.9435 133.337 42.8733C133.067 42.7912 132.786 42.7499 132.504 42.7512C132.158 42.7407 131.814 42.8007 131.494 42.9271C131.245 43.026 131.034 43.1966 130.888 43.4158C130.759 43.6147 130.69 43.8453 130.691 44.0804C130.678 44.3369 130.762 44.5893 130.929 44.789C131.085 44.966 131.285 45.1021 131.509 45.1849C131.806 45.2876 132.107 45.3757 132.413 45.4488C132.683 45.509 132.948 45.589 133.205 45.6882C133.396 45.7504 133.568 45.8541 133.71 45.9912C133.778 46.0631 133.83 46.1472 133.864 46.2386C133.897 46.33 133.912 46.427 133.907 46.5239C133.909 46.6612 133.876 46.7969 133.811 46.9189C133.746 47.0408 133.651 47.1452 133.534 47.2228C133.205 47.4251 132.817 47.5194 132.428 47.4915C132.099 47.4911 131.772 47.4331 131.464 47.3205C131.192 47.2213 130.944 47.0682 130.737 46.8709L130.57 47.1397Z" fill="white"/>
<path d="M85.5762 47.492C85.1826 47.2796 84.8549 46.9692 84.6271 46.5928C84.4105 46.1942 84.2994 45.7499 84.3038 45.2995C84.3082 44.8492 84.428 44.407 84.6523 44.0125C84.8801 43.6361 85.2078 43.3256 85.6014 43.1133C86.0176 42.8932 86.4852 42.7805 86.9593 42.7858C87.3041 42.7855 87.646 42.845 87.969 42.9618C88.271 43.0614 88.5443 43.2288 88.7666 43.4505L88.5344 43.6801C88.3263 43.4846 88.0794 43.3319 87.8088 43.2311C87.5381 43.1303 87.2492 43.0836 86.9593 43.0937C86.5502 43.0889 86.1468 43.1865 85.7882 43.3772C85.4448 43.5613 85.1589 43.8313 84.9603 44.1591C84.764 44.5006 84.661 44.8849 84.661 45.2757C84.661 45.6666 84.764 46.0509 84.9603 46.3924C85.1575 46.7212 85.4438 46.9916 85.7882 47.1743C86.1468 47.365 86.5502 47.4626 86.9593 47.4578C87.2443 47.4724 87.5295 47.432 87.7981 47.3388C88.0668 47.2457 88.3137 47.1017 88.5243 46.9153L88.7565 47.145C88.5346 47.374 88.2619 47.5511 87.9589 47.663C87.6359 47.7798 87.294 47.8393 86.9493 47.839C86.4683 47.84 85.9953 47.7204 85.5762 47.492Z" fill="white"/>
<path fill-rule="evenodd" clip-rule="evenodd" d="M42.0763 46.5829C42.3048 46.9617 42.6343 47.274 43.0304 47.487C43.4478 47.7086 43.9175 47.8214 44.3934 47.8144C44.8687 47.821 45.3379 47.7099 45.7564 47.4918C46.1519 47.2802 46.4814 46.9696 46.7105 46.5926C46.9437 46.2005 47.0639 45.7549 47.0589 45.3025C47.0665 44.8497 46.946 44.4036 46.7105 44.0123C46.4832 43.6339 46.1532 43.323 45.7564 43.1131C45.3362 42.8987 44.8684 42.7866 44.3934 42.7866C43.9184 42.7866 43.4506 42.8987 43.0304 43.1131C42.6343 43.3261 42.3048 43.6384 42.0763 44.0172C41.8481 44.4086 41.7281 44.8505 41.7281 45.3C41.7281 45.7495 41.8481 46.1914 42.0763 46.5829ZM46.3774 46.4265C46.1801 46.751 45.8957 47.0178 45.5545 47.1986C45.203 47.3943 44.8039 47.4955 44.3985 47.4918C43.991 47.4967 43.5891 47.3991 43.2323 47.2084C42.8869 47.0271 42.6002 46.7564 42.4044 46.4265C42.2082 46.0832 42.1053 45.6973 42.1053 45.3049C42.1053 44.9126 42.2082 44.5267 42.4044 44.1834C42.6017 43.8588 42.8861 43.592 43.2273 43.4112C43.585 43.2251 43.9848 43.1278 44.3909 43.1278C44.797 43.1278 45.1968 43.2251 45.5545 43.4112C45.8963 43.5957 46.1805 43.8657 46.3774 44.1931C46.5736 44.5346 46.6766 44.919 46.6766 45.3098C46.6766 45.7006 46.5736 46.085 46.3774 46.4265Z" fill="white"/>
<path d="M28.5171 42.8198H28.1436V47.7801H28.5171V42.8198Z" fill="white"/>
<path d="M34.4736 47.7801V42.8198H34.0849V47.1302L30.6017 42.8198H30.2887V47.7997H30.6774V43.4942L34.1657 47.7801H34.4736Z" fill="white"/>
<path d="M40.4304 42.8198V47.7801H40.1275L36.6342 43.4942V47.7997H36.2606V42.8198H36.5736L40.0619 47.1302V42.8198H40.4304Z" fill="white"/>
<path d="M52.2886 42.8198L50.0068 47.7801H49.6333L47.3515 42.8198H47.7604L49.8301 47.3159L51.9049 42.8198H52.2886Z" fill="white"/>
<path fill-rule="evenodd" clip-rule="evenodd" d="M53.1619 46.3873H56.1353L56.7814 47.7801H57.1853L54.8278 42.8198H54.4542L52.0968 47.7801H52.5006L53.1619 46.3873ZM54.6461 43.2157L55.9939 46.0794H53.3083L54.6461 43.2157Z" fill="white"/>
<path d="M58.8515 43.1473H57.0039V42.8198H61.0424V43.1473H59.1998V47.7801H58.8263L58.8515 43.1473Z" fill="white"/>
<path d="M62.3648 42.8198H61.9913V47.7801H62.3648V42.8198Z" fill="white"/>
<path d="M68.1752 42.8198L65.8934 47.7801H65.5199L63.233 42.8198H63.6419L65.7167 47.3159L67.7865 42.8198H68.1752Z" fill="white"/>
<path d="M72.5369 47.7801V47.4576H69.397V45.4197H72.128V45.102H69.397V43.1473H72.4258V42.8198H69.0032V47.7801H72.5369Z" fill="white"/>
<path d="M76.7622 43.1473H74.9146V42.8198H78.9531V43.1473H77.1358V47.7801H76.7622V43.1473Z" fill="white"/>
<path d="M83.4356 47.7801V47.4576H80.2654V45.4197H83.0267V45.102H80.2957V43.1473H83.3246V42.8198H79.9019V47.7801H83.4356Z" fill="white"/>
<path d="M94.1831 47.7801V42.8198H93.7894V45.102H90.3617V42.8198H89.9881V47.7801H90.3617V45.4197H93.8095V47.7801H94.1831Z" fill="white"/>
<path d="M100.14 42.8198V47.7801H99.8324L96.3391 43.4942V47.7997H95.9655V42.8198H96.2836L99.7668 47.1302V42.8198H100.14Z" fill="white"/>
<path fill-rule="evenodd" clip-rule="evenodd" d="M101.786 46.5829C102.012 46.9637 102.342 47.2766 102.74 47.487C103.156 47.707 103.624 47.8197 104.098 47.8144C104.573 47.821 105.042 47.7099 105.461 47.4918C105.856 47.2802 106.186 46.9696 106.415 46.5926C106.648 46.2004 106.768 45.7549 106.763 45.3025C106.771 44.8497 106.65 44.4036 106.415 44.0123C106.188 43.6339 105.858 43.323 105.461 43.1131C105.042 42.8987 104.575 42.7866 104.1 42.7866C103.626 42.7866 103.159 42.8987 102.74 43.1131C102.342 43.3235 102.012 43.6364 101.786 44.0172C101.558 44.4086 101.438 44.8505 101.438 45.3C101.438 45.7495 101.558 46.1914 101.786 46.5829ZM106.082 46.4167C105.89 46.7461 105.607 47.0169 105.264 47.1986C104.905 47.3839 104.505 47.4808 104.098 47.4808C103.691 47.4808 103.291 47.3839 102.932 47.1986C102.589 47.0155 102.304 46.7451 102.109 46.4167C101.913 46.0752 101.81 45.6908 101.81 45.3C101.81 44.9092 101.913 44.5249 102.109 44.1834C102.306 43.856 102.59 43.5859 102.932 43.4014C103.291 43.2162 103.691 43.1193 104.098 43.1193C104.505 43.1193 104.905 43.2162 105.264 43.4014C105.607 43.5832 105.89 43.854 106.082 44.1834C106.28 44.5241 106.385 44.9088 106.385 45.3C106.385 45.6913 106.28 46.0759 106.082 46.4167Z" fill="white"/>
<path d="M108.061 42.8198H108.434V47.4576H111.382V47.7801H108.061V42.8198Z" fill="white"/>
<path fill-rule="evenodd" clip-rule="evenodd" d="M112.125 46.5829C112.35 46.9636 112.681 47.2766 113.079 47.4869C113.496 47.7086 113.966 47.8214 114.442 47.8144C114.915 47.8208 115.383 47.7097 115.8 47.4918C116.197 47.2809 116.528 46.9703 116.759 46.5926C116.984 46.1976 117.102 45.7537 117.102 45.3025C117.102 44.8512 116.984 44.4073 116.759 44.0123C116.53 43.6337 116.198 43.3229 115.8 43.1131C115.38 42.8987 114.913 42.7866 114.439 42.7866C113.965 42.7866 113.498 42.8987 113.079 43.1131C112.681 43.3235 112.35 43.6364 112.125 44.0172C111.896 44.4086 111.776 44.8505 111.776 45.3C111.776 45.7495 111.896 46.1914 112.125 46.5829ZM116.421 46.4167C116.229 46.746 115.945 47.0169 115.603 47.1986C115.244 47.3839 114.843 47.4808 114.437 47.4808C114.03 47.4808 113.63 47.3839 113.271 47.1986C112.928 47.0155 112.643 46.7451 112.448 46.4167C112.251 46.0752 112.148 45.6908 112.148 45.3C112.148 44.9092 112.251 44.5249 112.448 44.1833C112.645 43.856 112.929 43.5859 113.271 43.4014C113.63 43.2162 114.03 43.1193 114.437 43.1193C114.843 43.1193 115.244 43.2162 115.603 43.4014C115.945 43.5832 116.229 43.854 116.421 44.1833C116.619 44.5241 116.724 44.9088 116.724 45.3C116.724 45.6913 116.619 46.0759 116.421 46.4167Z" fill="white"/>
<path d="M122.034 45.3221H122.392V47.1791C122.161 47.3989 121.881 47.5658 121.575 47.6678C121.25 47.7751 120.908 47.8296 120.565 47.8291C120.088 47.8356 119.617 47.7246 119.197 47.5065C118.799 47.2968 118.467 46.9859 118.238 46.6073C118.005 46.2151 117.884 45.7696 117.889 45.3172C117.882 44.8644 118.002 44.4183 118.238 44.027C118.466 43.6474 118.798 43.3361 119.197 43.1278C119.619 42.9037 120.094 42.7907 120.575 42.8004C120.92 42.8 121.262 42.8596 121.585 42.9763C121.888 43.0786 122.164 43.2456 122.392 43.465L122.16 43.7045C121.957 43.5046 121.71 43.3511 121.438 43.2549C121.153 43.1632 120.855 43.1169 120.555 43.118C120.141 43.1131 119.733 43.2106 119.369 43.4015C119.023 43.5841 118.735 43.8544 118.536 44.1834C118.335 44.5241 118.232 44.9104 118.238 45.3025C118.232 45.6878 118.335 46.0674 118.534 46.4011C118.733 46.7349 119.021 47.0104 119.369 47.1987C119.733 47.3895 120.141 47.4871 120.555 47.4821C121.08 47.5002 121.596 47.3413 122.014 47.0325L122.034 45.3221Z" fill="white"/>
<path d="M124.407 42.8198H124.033V47.7801H124.407V42.8198Z" fill="white"/>
<path d="M129.738 47.4576V47.7801H126.204V42.8198H129.627V43.1473H126.598V45.102H129.324V45.4197H126.598V47.4576H129.738Z" fill="white"/>
</svg>
