<svg width="54" height="54" viewBox="0 0 54 54" fill="none" xmlns="http://www.w3.org/2000/svg">
<path fill-rule="evenodd" clip-rule="evenodd" d="M28.0607 15.4393C27.4749 14.8536 26.5251 14.8536 25.9393 15.4393C25.3536 16.0251 25.3536 16.9749 25.9393 17.5607L33.8787 25.5H16.5C15.6716 25.5 15 26.1716 15 27C15 27.8284 15.6716 28.5 16.5 28.5H33.8787L25.9393 36.4393C25.3536 37.0251 25.3536 37.9749 25.9393 38.5606C26.5251 39.1464 27.4749 39.1464 28.0607 38.5606L38.5596 28.0617C38.5632 28.0581 38.5668 28.0545 38.5704 28.0508C38.8351 27.7812 38.9988 27.4119 39 27.0045C39 27.003 39 27.0015 39 27C39 26.9985 39 26.997 39 26.9955C38.9994 26.7937 38.959 26.6014 38.8862 26.4258C38.8146 26.2529 38.7094 26.0907 38.5704 25.9492C38.5668 25.9456 38.5634 25.942 38.5597 25.9384" fill="#2763FE"/>
</svg>
