<svg width="54" height="54" viewBox="0 0 54 54" fill="none" xmlns="http://www.w3.org/2000/svg">
<path fill-rule="evenodd" clip-rule="evenodd" d="M25.9393 38.5607C26.5251 39.1464 27.4749 39.1464 28.0607 38.5607C28.6464 37.9749 28.6464 37.0251 28.0607 36.4393L20.1213 28.5L37.5 28.5C38.3284 28.5 39 27.8284 39 27C39 26.1716 38.3284 25.5 37.5 25.5L20.1213 25.5L28.0607 17.5606C28.6464 16.9749 28.6464 16.0251 28.0607 15.4393C27.4749 14.8536 26.5251 14.8536 25.9393 15.4393L15.4404 25.9383C15.4368 25.9419 15.4332 25.9455 15.4296 25.9492C15.1649 26.2188 15.0012 26.5881 15 26.9955C15 26.997 15 26.9985 15 27C15 27.0015 15 27.003 15 27.0045C15.0006 27.2062 15.041 27.3986 15.1139 27.5742C15.1854 27.7471 15.2906 27.9093 15.4296 28.0508C15.4332 28.0544 15.4367 28.058 15.4403 28.0616" fill="#2763FE"/>
</svg>
