<svg width="33" height="28" viewBox="0 0 33 28" fill="none" xmlns="http://www.w3.org/2000/svg">
<g clip-path="url(#clip0_2_80)">
<path d="M9.09588 27.358C7.40838 27.358 5.90412 27.0682 4.5831 26.4886C3.2706 25.9091 2.22656 25.1037 1.45099 24.0724C0.683949 23.0327 0.266335 21.8267 0.198154 20.4545H3.41974C3.48793 21.2983 3.7777 22.027 4.28906 22.6406C4.80043 23.2457 5.46946 23.7145 6.29616 24.0469C7.12287 24.3793 8.03906 24.5455 9.04474 24.5455C10.1697 24.5455 11.1669 24.3494 12.0362 23.9574C12.9055 23.5653 13.5874 23.0199 14.0817 22.321C14.576 21.6222 14.8232 20.8125 14.8232 19.892C14.8232 18.929 14.5845 18.081 14.1072 17.348C13.63 16.6065 12.9311 16.027 12.0107 15.6094C11.0902 15.1918 9.9652 14.983 8.63565 14.983H6.53906V12.1705H8.63565C9.67543 12.1705 10.5874 11.983 11.3714 11.608C12.1641 11.233 12.782 10.7045 13.2251 10.0227C13.6768 9.3409 13.9027 8.5398 13.9027 7.6193C13.9027 6.733 13.7067 5.9616 13.3146 5.3054C12.9226 4.6491 12.3686 4.1378 11.6527 3.7713C10.9453 3.4048 10.1101 3.2216 9.14702 3.2216C8.24361 3.2216 7.39134 3.3878 6.5902 3.7202C5.79759 4.044 5.14986 4.517 4.64702 5.1392C4.14418 5.7528 3.87145 6.4943 3.82884 7.3636H0.760654C0.81179 5.9915 1.22514 4.7898 2.00071 3.7585C2.77628 2.7187 3.79048 1.90909 5.04332 1.32955C6.30469 0.75 7.68963 0.46023 9.19815 0.46023C10.8175 0.46023 12.2067 0.78835 13.3658 1.4446C14.5249 2.0923 15.4155 2.9489 16.0376 4.0142C16.6598 5.0795 16.9709 6.2301 16.9709 7.4659C16.9709 8.9403 16.5831 10.1974 15.8075 11.2372C15.0405 12.277 13.9964 12.9972 12.6754 13.3977V13.6023C14.3288 13.875 15.62 14.5781 16.549 15.7116C17.478 16.8366 17.9425 18.2301 17.9425 19.892C17.9425 21.3153 17.5547 22.5938 16.7791 23.7273C16.0121 24.8523 14.9638 25.7386 13.6342 26.3864C12.3047 27.0341 10.7919 27.358 9.09588 27.358Z" fill="#2763FE"/>
<path fill-rule="evenodd" clip-rule="evenodd" d="M21 8.3484V19.8713C22.4344 19.6039 23.7248 18.8838 24.6519 17.8335C25.579 16.7832 26.0855 15.4675 26.0855 14.1099C26.0855 12.7522 25.579 11.4365 24.6519 10.3862C23.7248 9.3359 22.4344 8.6158 21 8.3484Z" fill="url(#paint0_linear_2_80)"/>
<path d="M21 4.2665V1C24.3426 1.48223 27.3893 3.0576 29.5899 5.4415C31.7905 7.8255 33 10.8611 33 14C33 17.139 31.7905 20.1745 29.5899 22.5585C27.3893 24.9425 24.3426 26.5178 21 27V23.7334C23.4127 23.2699 25.5795 22.0487 27.1351 20.2757C28.6907 18.5027 29.5401 16.2863 29.5401 14C29.5401 11.7137 28.6907 9.4973 27.1351 7.7243C25.5795 5.9513 23.4127 4.7301 21 4.2665Z" fill="url(#paint1_linear_2_80)"/>
</g>
<defs>
<linearGradient id="paint0_linear_2_80" x1="-11.3787" y1="-104.4" x2="67.437" y2="-104.4" gradientUnits="userSpaceOnUse">
<stop stop-color="#2763FE"/>
</linearGradient>
<linearGradient id="paint1_linear_2_80" x1="-11.3787" y1="-104.4" x2="67.437" y2="-104.4" gradientUnits="userSpaceOnUse">
<stop stop-color="#2763FE"/>
</linearGradient>
<clipPath id="clip0_2_80">
<rect width="33" height="28" fill="white"/>
</clipPath>
</defs>
</svg>
